<?xml version="1.0" standalone="no"?><!DOCTYPE svg PUBLIC "-//W3C//DTD SVG 1.1//EN" "http://www.w3.org/Graphics/SVG/1.1/DTD/svg11.dtd"><svg t="1636793476955" class="icon" viewBox="0 0 1024 1024" version="1.1" xmlns="http://www.w3.org/2000/svg" p-id="1989" xmlns:xlink="http://www.w3.org/1999/xlink" width="200" height="200"><defs><style type="text/css"></style></defs><path d="M595.86 162.06a331 331 0 0 0-478.39 296.71A18.58 18.58 0 0 1 112 472a18.56 18.56 0 0 1-9.48 5.09 330.3 330.3 0 0 0 2.87 38.77 18.67 18.67 0 0 1 19.85 14.57v0.24c1.08 4.9 1.49 6.74 2.71 11.32a18.65 18.65 0 0 1-12.33 22.61 323.45 323.45 0 0 0 12.22 34.51 18.63 18.63 0 0 1 24.77 8.4 332.28 332.28 0 0 0 119.93 131.75 328.61 328.61 0 0 0 45 23.65 354.78 354.78 0 0 0 84.16-1.27 346.67 346.67 0 0 0 107.4-32.82c-0.28-4.31-0.4-8.67-0.4-13.06 0-108.89 80.37-199.37 184.91-215.23A348.47 348.47 0 0 0 704 422.69q0.09-3.81 0.09-7.63a348.77 348.77 0 0 0-108.23-253zM278 407.77a18.63 18.63 0 0 1-26-4.64l-33.36-47.87a18.66 18.66 0 0 1 30.61-21.34l33.35 47.88a18.64 18.64 0 0 1-4.6 25.97z m41.33-71.38a18.66 18.66 0 0 1-26-4.64L260 283.88a18.66 18.66 0 0 1 30.61-21.34l33.37 47.88a18.65 18.65 0 0 1-4.69 25.97zM792.08 525c-0.17 0.89-0.35 1.78-0.52 2.67 0.17-0.9 0.35-1.79 0.52-2.67z" fill="#FFFFFF" p-id="1990"></path><path d="M792.08 525c-0.17 0.89-0.35 1.78-0.52 2.67 0.17-0.9 0.35-1.79 0.52-2.67zM809.21 534.73l-0.94-0.43z" fill="#303030" p-id="1991"></path><path d="M282.6 381.8l-33.36-47.88a18.66 18.66 0 0 0-30.61 21.34L252 403.13a18.65 18.65 0 1 0 30.6-21.33z m41.33-71.38l-33.37-47.88A18.66 18.66 0 0 0 260 283.88l33.36 47.87a18.66 18.66 0 0 0 30.62-21.33z" fill="#F86E8A" p-id="1992"></path><path d="M517.2 131.75l-2.64-0.65z" fill="#FFFFFF" p-id="1993"></path><path d="M517.2 131.75l-2.64-0.65zM525 114.43c-0.16 0.3-0.31 0.61-0.49 0.91 0.16-0.3 0.33-0.62 0.48-0.92 0.01 0 0.01 0 0.01 0.01z" fill="#303030" p-id="1994"></path><path d="M519.09 782.39a333.54 333.54 0 0 1-66.77 7.46h-3.75q-9.63 0-19.2-0.55a330.21 330.21 0 0 1-111.86-26.42 354.78 354.78 0 0 0 84.16-1.27 346.67 346.67 0 0 0 107.4-32.82c0.16 2.82 0.38 5.6 0.66 8.38a215.35 215.35 0 0 0 9.36 45.22zM779.68 458.77a334.75 334.75 0 0 1-3 45.16 216.89 216.89 0 0 0-47.17-5.84h-3.11a220.14 220.14 0 0 0-32.78 2.46A348.47 348.47 0 0 0 704 422.69q0.09-3.81 0.09-7.63a348.77 348.77 0 0 0-108.26-253 332 332 0 0 1 183.85 296.71z" fill="#DDDDDD" p-id="1995"></path><path d="M115.66 564.57c-0.27 0.09-0.56 0.18-0.84 0.25a18.49 18.49 0 0 1-4.85 0.65 18.69 18.69 0 0 1-18-13.82c-1.44-5.41-2-7.94-3.12-13v-0.23A18.68 18.68 0 0 1 103 516.19a19.42 19.42 0 0 1 2.39-0.36 18.67 18.67 0 0 1 19.85 14.57v0.24c1.08 4.9 1.49 6.74 2.71 11.32a18.65 18.65 0 0 1-12.29 22.61z" fill="#303030" p-id="1996"></path><path d="M319.29 336.39a18.66 18.66 0 0 1-26-4.64L260 283.88a18.66 18.66 0 0 1 30.61-21.34l33.37 47.88a18.65 18.65 0 0 1-4.69 25.97zM278 407.77a18.63 18.63 0 0 1-26-4.64l-33.36-47.87a18.66 18.66 0 0 1 30.61-21.34l33.35 47.88a18.64 18.64 0 0 1-4.6 25.97z" fill="#9B9B9B" p-id="1997"></path><path d="M514.55 131.11l2.64 0.65zM525 114.42c-0.15 0.3-0.32 0.62-0.48 0.92 0.18-0.3 0.33-0.61 0.49-0.91l-0.01-0.01z" fill="#F86E8A" p-id="1998"></path><path d="M812.62 515.88a372.94 372.94 0 0 0 4.38-57.11 368.43 368.43 0 0 0-628.95-260.51 366 366 0 0 0-107.9 260.51 18.65 18.65 0 0 0 18.66 18.66 18 18 0 0 0 3.7-0.37A18.56 18.56 0 0 0 112 472a18.58 18.58 0 0 0 5.48-13.19 331.11 331.11 0 0 1 662.21 0 334.75 334.75 0 0 1-3 45.16 216.89 216.89 0 0 0-47.17-5.84h-3.11a220.14 220.14 0 0 0-32.78 2.46C589 516.39 508.67 606.87 508.67 715.76c0 4.39 0.12 8.75 0.4 13.06 0.16 2.82 0.38 5.6 0.66 8.38a215.35 215.35 0 0 0 9.36 45.19 333.54 333.54 0 0 1-66.77 7.46h-3.75q-9.63 0-19.2-0.55a331.14 331.14 0 0 1-276.72-181.82 18.63 18.63 0 0 0-24.77-8.4 1.19 1.19 0 0 0-0.29 0.12 18.66 18.66 0 0 0-8.27 25.06 369.33 369.33 0 0 0 414.54 193.07c36.55 69 109.13 116.13 192.5 116.13 120 0 217.69-97.67 217.69-217.7 0-89.41-54.17-166.4-131.43-199.88zM517.2 131.76l-2.64-0.65 2.65 0.64z m7.35-16.42c0.16-0.3 0.33-0.62 0.48-0.92-0.15 0.31-0.3 0.58-0.48 0.92z m284.66 419.39c0.35 0.17 0.71 0.33 1.06 0.51-0.35-0.18-0.71-0.34-1.07-0.5l-0.94-0.43z m-17.67-7.08c0.19-0.88 0.37-1.77 0.54-2.66-0.17 0.89-0.35 1.78-0.52 2.67zM561.87 789.78a182.64 182.64 0 0 1-6.77-17.34 179.57 179.57 0 0 1-9.1-56.68q0-4.12 0.18-8.2c0.07-1.34 0.14-2.67 0.24-4 5.24-78.27 60.66-143 134.25-162.31a180.36 180.36 0 0 1 45.7-5.86h3.35a179.19 179.19 0 0 1 75.1 17.92 182.61 182.61 0 0 1 24.07 14.07 180.32 180.32 0 0 1 77.86 148.34c0 99.46-80.92 180.38-180.38 180.38a181 181 0 0 1-164.49-106.31" fill="#303030" p-id="1999"></path><path d="M810.27 535.24c-0.35-0.18-0.71-0.34-1.07-0.5l-0.94-0.43 1 0.42c0.3 0.17 0.66 0.33 1.01 0.51zM906.74 715.76c0 99.46-80.92 180.38-180.38 180.38a180.13 180.13 0 0 1-47.36-6.32c107.06-3.27 192.83-91.1 192.83-198.94a198.28 198.28 0 0 0-42.9-123.46 180.32 180.32 0 0 1 77.81 148.34z" fill="#59B7C1" p-id="2000"></path><path d="M828.88 567.42a182.61 182.61 0 0 0-24.07-14.07 179.06 179.06 0 0 0-75.1-17.92h-3.35a180.36 180.36 0 0 0-45.7 5.86c-73.59 19.29-129 84-134.25 162.31-0.1 1.33-0.17 2.66-0.24 4q-0.18 4.08-0.18 8.2a179.57 179.57 0 0 0 9.11 56.68 182.64 182.64 0 0 0 6.77 17.34 181.29 181.29 0 0 0 117.13 100c107.06-3.27 192.83-91.1 192.83-198.94a198.28 198.28 0 0 0-42.95-123.46zM637 715.1a18.66 18.66 0 0 1-26-4.64l-19-27.24a18.61 18.61 0 0 1-3.24-8.57 17.81 17.81 0 0 1-0.07-3.18 2.63 2.63 0 0 1 0-0.49 10.65 10.65 0 0 1 0.16-1.37c0-0.16 0-0.32 0.09-0.5a0.18 0.18 0 0 1 0-0.06c0-0.28 0.11-0.57 0.18-0.86 0.09-0.35 0.18-0.7 0.29-1s0.22-0.71 0.35-1a13.93 13.93 0 0 1 0.7-1.64 5.6 5.6 0 0 1 0.27-0.55c0.09-0.18 0.19-0.37 0.3-0.55s0.25-0.43 0.38-0.64a11.59 11.59 0 0 1 0.84-1.23l0.45-0.58a9.57 9.57 0 0 1 0.84-1 6.52 6.52 0 0 1 0.51-0.55c0.13-0.12 0.25-0.25 0.39-0.37s0.33-0.31 0.51-0.46c0.21-0.19 0.42-0.36 0.64-0.53a11.17 11.17 0 0 1 1-0.71c0.28-0.2 0.57-0.39 0.86-0.56l0.33-0.2c0.26-0.15 0.52-0.3 0.79-0.44s0.75-0.38 1.14-0.54a2.44 2.44 0 0 1 0.41-0.18 15.73 15.73 0 0 1 1.58-0.57c0.34-0.11 0.67-0.2 1-0.28s0.67-0.17 1-0.23a7.36 7.36 0 0 1 0.8-0.12 6.38 6.38 0 0 1 0.73-0.1c0.29 0 0.57 0 0.86-0.06s0.71 0 1.06 0a18.22 18.22 0 0 1 2.45 0.16 18.61 18.61 0 0 1 12.88 7.84l19 27.23A18.66 18.66 0 0 1 637 715.1z m31.18-62.1a18.63 18.63 0 0 1-26-4.64l-12.39-17.77-1.52-2.17-5.09-7.29a18.67 18.67 0 0 1 29.26-23.08 17.64 17.64 0 0 1 1.37 1.73l2.21 3.18 16.8 24.04a18.65 18.65 0 0 1-4.64 26z" fill="#76CADD" p-id="2001"></path><path d="M668.18 653a18.63 18.63 0 0 1-26-4.64l-12.39-17.77-1.52-2.17-5.09-7.29a18.67 18.67 0 0 1 29.26-23.08 17.64 17.64 0 0 1 1.37 1.73l2.21 3.18 16.8 24.04a18.65 18.65 0 0 1-4.64 26zM637 715.1a18.66 18.66 0 0 1-26-4.64l-19-27.24a18.61 18.61 0 0 1-3.24-8.57 17.81 17.81 0 0 1-0.07-3.18 2.63 2.63 0 0 1 0-0.49 10.65 10.65 0 0 1 0.16-1.37c0-0.16 0-0.32 0.09-0.5a0.18 0.18 0 0 1 0-0.06c0-0.28 0.11-0.57 0.18-0.86 0.09-0.35 0.18-0.7 0.29-1s0.22-0.71 0.35-1a13.93 13.93 0 0 1 0.7-1.64 5.6 5.6 0 0 1 0.27-0.55c0.09-0.18 0.19-0.37 0.3-0.55s0.25-0.43 0.38-0.64a11.59 11.59 0 0 1 0.84-1.23l0.45-0.58a9.57 9.57 0 0 1 0.84-1c0.16-0.19 0.34-0.37 0.51-0.55s0.25-0.25 0.39-0.37 0.33-0.31 0.51-0.46c0.21-0.19 0.42-0.36 0.64-0.53s0.62-0.49 1-0.71 0.57-0.39 0.86-0.56l0.33-0.2c0.26-0.15 0.52-0.3 0.79-0.44s0.75-0.38 1.14-0.54c0.14-0.06 0.27-0.13 0.41-0.18a15.73 15.73 0 0 1 1.58-0.57c0.34-0.11 0.67-0.2 1-0.28s0.67-0.17 1-0.23a7.36 7.36 0 0 1 0.8-0.12c0.25 0 0.48-0.08 0.73-0.1s0.57 0 0.86-0.06 0.71 0 1.06 0a18.22 18.22 0 0 1 2.45 0.16 18.61 18.61 0 0 1 12.88 7.84l19 27.23A18.66 18.66 0 0 1 637 715.1z" fill="#FFFFFF" p-id="2002"></path></svg>